# xmcd
#
# Track frame offsets:
#	150
#	17177
#	28210
#	50475
#	66017
#	81208
#	105282
#	125900
#	145384
#	159279
#	170744
#	183910
#	210279
#	225524
#	247708
#
# Disc length: 3469 seconds
#
# Revision: 0
# Processed by: cddbd v1.5.2PL0 Copyright (c) Steve Scherf et al.
# Submitted via: EasyCDDAExtractor 16.0.6.1
#
DISCID=c10d8b0f
DTITLE=Τραγούδια της παρέας
DYEAR=1900
DGENRE=Ποικίλη
TTITLE0=Χορωδία Καλαμάτας Ορφεύς - Φαληριώτισσα [Γιάννης Παπαϊωάννου-Βαγγέλης 
TTITLE0=Γρυπάρης]
TTITLE1=Κεφαλλονίτικη Χορωδία - Απόψε την κιθάρα μου
TTITLE2=Χορωδία Καλαμάτας Ορφεύς - Το μινόρε της αυγής [Σπύρος Περιστέρης-Μ.Μά
TTITLE2=τσας]
TTITLE3=Τρίο Κιτάρα - Γι' αυτό γεννήθηκε η ρετσίνα [Αλέκος Σπάθης-Γιώργος Οικο
TTITLE3=νομίδης]
TTITLE4=Χορωδία Καλαμάτας Ορφεύς - Τι όμορφη που είσαι όταν κλαις [Στέλ. Χρυσί
TTITLE4=νης-Χρ. Κολοκοτρώνης]
TTITLE5=Χορωδία κ Μαντολινάτα Διον. Αποστολάτου - Θα κόψω ρόδα [Νίκος Χατζηαπο
TTITLE5=στόλου]
TTITLE6=Μουζάς-Λιγνός - Η ξανθούλα [διασκ.Γιώργος Θεοφιλόπουλος, ποίηση Διον. 
TTITLE6=Σολωμός]
TTITLE7=Χορωδία κ Μαντολινάτα Διον. Αποστολάτου - Ετίναξε την ανθισμένη αμυγδα
TTITLE7=λιά [Γιώργος Δροσύνης]
TTITLE8=Χορωδία Καλαμάτας Ορφεύς - Η άμαξα μέσ' στη βροχή [Απόστολος Χατζηχρήσ
TTITLE8=τος]
TTITLE9=Κεφαλλονίτικη Χορωδία - Καλησπερίζω δυό αδελφές [Αργύρης Κουνάδης]
TTITLE10=Μουζάς-Λιγνός - Το γελεκάκι (που φορείς)[Σπ. Ολλανδέζος-Γιάννης Θεοδω
TTITLE10=ρίδης]
TTITLE11=Χορωδία κ Μαντολινάτα Διον. Αποστολάτου - Τα κοραλλένια χείλη σου [Νί
TTITLE11=κος Χατζηαποστόλου]
TTITLE12=Τρίο Κιτάρα - Μάρτυρας θα είναι το φεγγάρι [Ανδ. Χατζηαποστόλου-Γιώρ.
TTITLE12=Οικονομίδης]
TTITLE13=Μανωλάκης Γιάννης-Κουτλίδης Φίλιππος (Αττίκ) - Αν βγουν αλήθεια [συνο
TTITLE13=δ. Χορ. κ Μαντολινάτα Διονύση Αποστολάτου]
TTITLE14=Χορωδία κ Μαντολινάτα Διον. Αποστολάτου - Ο μπαρμπα-Γιάννης [Νίκος Επ
TTITLE14=ιτροπάκης]
EXTD=
EXTT0=
EXTT1=
EXTT2=
EXTT3=
EXTT4=
EXTT5=
EXTT6=
EXTT7=
EXTT8=
EXTT9=
EXTT10=
EXTT11=
EXTT12=
EXTT13=
EXTT14=
PLAYORDER=
